<svg width="17" height="17" viewBox="0 0 17 17" fill="none" xmlns="http://www.w3.org/2000/svg">
<path d="M13.458 4.95835H7.79134V9.91669H2.12467V3.54169H0.708008V14.1667H2.12467V12.0417H14.8747V14.1667H16.2913V7.79169C16.2913 7.04024 15.9928 6.31957 15.4615 5.78822C14.9301 5.25686 14.2095 4.95835 13.458 4.95835ZM4.95801 9.20835C5.52159 9.20835 6.0621 8.98447 6.46061 8.58596C6.85913 8.18744 7.08301 7.64694 7.08301 7.08335C7.08301 6.51977 6.85913 5.97927 6.46061 5.58075C6.0621 5.18224 5.52159 4.95835 4.95801 4.95835C4.39442 4.95835 3.85392 5.18224 3.45541 5.58075C3.05689 5.97927 2.83301 6.51977 2.83301 7.08335C2.83301 7.64694 3.05689 8.18744 3.45541 8.58596C3.85392 8.98447 4.39442 9.20835 4.95801 9.20835Z" fill="black"/>
</svg>
